nColumns=28
nRows=28
DataType=double
version=3
OpenSimVersion=4.2
endheader
time	ground_force_1_vx	ground_force_1_vy	ground_force_1_vz	ground_force_1_px	ground_force_1_py	ground_force_1_pz	ground_moment_1_mx	ground_moment_1_my	ground_moment_1_mz	ground_force_2_vx	ground_force_2_vy	ground_force_2_vz	ground_force_2_px	ground_force_2_py	ground_force_2_pz	ground_moment_2_mx	ground_moment_2_my	ground_moment_2_mz	ground_force_3_vx	ground_force_3_vy	ground_force_3_vz	ground_force_3_px	ground_force_3_py	ground_force_3_pz	ground_moment_3_mx	ground_moment_3_my	ground_moment_3_mz
1.23	0	0	0	0.2	5.5292802981503e-17	-0.903	0	0	0	9.829241752624512	485.3160705566406	137.742431640625	0.2	1.83697019872103e-17	-0.3	-105.256890625	7.839599121093751	-15.423283203125	5.805898189544678	488.9639892578125	-93.210578918457	0.2	-1.85533990070824e-17	0.303	-64.45324609375	9.665500976562498	44.4495
1.231	0	0	0	0.2	5.5292802981503e-17	-0.903	0	0	0	8.72628116607666	477.171142578125	136.8091583251953	0.2	1.83697019872103e-17	-0.3	-103.2915	7.736157714843751	-15.216404296875	4.448408603668213	493.0364685058594	-95.58618164062497	0.2	-1.85533990070824e-17	0.303	-65.7979921875	9.424136718749997	45.38046875
1.232	0	0	0	0.2	5.5292802981503e-17	-0.903	0	0	0	8.386908531188965	468.3474731445313	135.3668212890625	0.2	1.83697019872103e-17	-0.3	-101.2916640625	7.477556640625001	-15.0095224609375	3.006076097488403	499.8239135742188	-96.60430145263669	0.2	-1.85533990070824e-17	0.303	-66.90134375	9.475857421874997	45.69080078125
1.233	0	0	0	0.2	5.5292802981503e-17	-0.903	0	0	0	7.283948421478271	456.8088073730469	134.0093231201172	0.2	1.83697019872103e-17	-0.3	-99.3607734375	7.27067578125	-14.6991982421875	1.818272709846497	505.2538757324219	-98.47084808349607	0.2	-1.85533990070824e-17	0.303	-67.9702265625	9.355176757812496	46.621765625
1.234	0	0	0	0.2	5.5292802981503e-17	-0.903	0	0	0	6.435517311096191	449.3426208496094	133.2457427978516	0.2	1.83697019872103e-17	-0.3	-97.636765625	7.167234863281251	-14.2164775390625	0.2910970151424408	510.3444519042969	-100.8464584350586	0.2	-1.85533990070824e-17	0.303	-68.9356953125	9.113817382812496	47.10448828125
1.235	0	0	0	0.2	5.5292802981503e-17	-0.903	0	0	0	5.841615676879883	439.8401794433594	131.6337280273438	0.2	1.83697019872103e-17	-0.3	-95.60240625	7.012073730468751	-14.147517578125	-1.575451016426086	515.0956420898438	-102.2887878417968	0.2	-1.85533990070824e-17	0.303	-69.86665625000001	9.286218749999996	47.82856640625
1.236	0	0	0	0.2	5.5292802981503e-17	-0.903	0	0	0	4.993185043334961	428.6408996582031	130.2762298583985	0.2	1.83697019872103e-17	-0.3	-93.2232734375	6.68451171875	-13.6303115234375	-3.357156038284302	520.525634765625	-104.4098663330078	0.2	-1.85533990070824e-17	0.303	-70.9700078125	9.131055664062496	48.34577734375
1.237	0	0	0	0.2	5.5292802981503e-17	-0.903	0	0	0	4.738655567169189	417.4415893554688	129.5974884033203	0.2	1.83697019872103e-17	-0.3	-91.60270312500001	6.598311035156251	-13.2855087890625	-4.290430068969727	526.9736938476563	-106.8703155517578	0.2	-1.85533990070824e-17	0.303	-71.59065624999999	9.027614257812496	48.9664140625
1.238	0	0	0	0.2	5.5292802981503e-17	-0.903	0	0	0	3.890224695205688	407.5997924804688	128.3248443603516	0.2	1.83697019872103e-17	-0.3	-89.56839062500001	6.236268554687501	-12.9062294921875	-5.732762813568115	531.046142578125	-108.7368621826172	0.2	-1.85533990070824e-17	0.303	-72.762984375	9.131055664062496	49.51810546875
1.239	0	0	0	0.2	5.5292802981503e-17	-0.903	0	0	0	3.29632306098938	397.7579956054688	126.7976684570313	0.2	1.83697019872103e-17	-0.3	-87.2926953125	6.012146972656251	-12.3890224609375	-7.25993824005127	535.11865234375	-110.433723449707	0.2	-1.85533990070824e-17	0.303	-73.9698046875	8.906933593749997	50.27666015625
1.24	0	0	0	0.2	5.5292802981503e-17	-0.903	0	0	0	2.532735109329224	386.5587158203125	124.7614288330078	0.2	1.83697019872103e-17	-0.3	-85.3618046875	5.891466308593751	-12.1821435546875	-9.296173095703125	540.548583984375	-112.4699630737304	0.2	-1.85533990070824e-17	0.303	-74.7628515625	8.889696289062496	50.69043359375
1.241	0	0	0	0.2	5.5292802981503e-17	-0.903	0	0	0	1.684304118156433	375.6987915039063	123.4887847900391	0.2	1.83697019872103e-17	-0.3	-83.0516015625	5.546662597656251	-12.0097431640625	-10.48397636413574	543.9423217773438	-114.9304122924804	0.2	-1.85533990070824e-17	0.303	-75.62483593749999	8.872456054687497	51.20762890625
1.242	0	0	0	0.2	5.5292802981503e-17	-0.903	0	0	0	1.175245523452759	363.8207702636719	121.5373916625977	0.2	1.83697019872103e-17	-0.3	-80.53457031249999	5.443223144531251	-11.5615	-12.35052394866943	549.711669921875	-116.7121124267578	0.2	-1.85533990070824e-17	0.303	-76.59030468749999	8.579371093749996	51.6903515625
1.243	0	0	0	0.2	5.5292802981503e-17	-0.903	0	0	0	0.6661869883537292	354.9970703125	119.1617889404297	0.2	1.83697019872103e-17	-0.3	-78.327828125	5.219101562500001	-11.25117578125	-12.94442558288574	554.1234741210938	-118.3241348266601	0.2	-1.85533990070824e-17	0.303	-77.659171875	8.751772460937497	52.13859375
1.244	0	0	0	0.2	5.5292802981503e-17	-0.903	0	0	0	-0.09740087389945984	343.1190490722656	117.3800811767578	0.2	1.83697019872103e-17	-0.3	-75.91421875	4.960500000000001	-10.871892578125	-15.57456207275391	555.8203735351563	-120.1058349609375	0.2	-1.85533990070824e-17	0.303	-78.62461718749999	8.648333984374997	52.55235546875
1.245	0	0	0	0.2	5.5292802981503e-17	-0.903	0	0	0	-0.6913025379180908	331.5803833007813	115.5983810424805	0.2	1.83697019872103e-17	-0.3	-73.7419609375	4.650176757812501	-10.5615732421875	-16.08362007141113	559.892822265625	-121.8875427246093	0.2	-1.85533990070824e-17	0.303	-79.486625	8.389730468749997	53.10405078125
1.246	0	0	0	0.2	5.5292802981503e-17	-0.903	0	0	0	-0.6913025379180908	321.3992309570313	113.1379318237305	0.2	1.83697019872103e-17	-0.3	-71.15592968750001	4.477775390625001	-10.1478076171875	-17.18658065795898	565.6621704101563	-123.0753479003906	0.2	-1.85533990070824e-17	0.303	-80.4520703125	8.475931640624996	53.93156640625
1.247	0	0	0	0.2	5.5292802981503e-17	-0.903	0	0	0	-2.133635282516479	306.8062133789063	110.4229507446289	0.2	1.83697019872103e-17	-0.3	-68.88025	4.132973144531251	-9.699564453124999	-18.88344192504883	571.4314575195313	-125.1115798950195	0.2	-1.85533990070824e-17	0.303	-81.31407812499999	8.441453124999997	54.31085546875
1.248	0	0	0	0.2	5.5292802981503e-17	-0.903	0	0	0	-2.98206615447998	297.9825134277344	108.217025756836	0.2	1.83697019872103e-17	-0.3	-66.25973437499999	3.96057275390625	-9.3202841796875	-20.07124519348145	574.8251953125	-125.7903289794922	0.2	-1.85533990070824e-17	0.303	-82.2795234375	8.182851074218746	55.000453125
1.249	0	0	0	0.2	5.5292802981503e-17	-0.903	0	0	0	-3.066909313201904	285.7651062011719	105.756576538086	0.2	1.83697019872103e-17	-0.3	-64.22540234375001	3.8571318359375	-9.078919921875	-20.5803050994873	579.576416015625	-127.6568756103515	0.2	-1.85533990070824e-17	0.303	-83.07257031250001	8.389730468749997	55.62110546875
1.25	0	0	0	0.2	5.5292802981503e-17	-0.903	0	0	0	-3.660810947418213	272.8689575195313	102.2780151367188	0.2	1.83697019872103e-17	-0.3	-61.77730859375	3.564050048828125	-8.665158203124999	-21.93779373168945	582.6307983398438	-129.0992126464843	0.2	-1.85533990070824e-17	0.303	-84.3828359375	8.234569335937497	56.17278125
1.251	0	0	0	0.2	5.5292802981503e-17	-0.903	0	0	0	-4.00018310546875	263.0271606445313	99.39334869384767	0.2	1.83697019872103e-17	-0.3	-59.12232421875	3.322687744140625	-8.4582763671875	-22.36200904846191	588.739501953125	-129.6082611083984	0.2	-1.85533990070824e-17	0.303	-85.31378906250001	8.096649902343746	56.758953125
1.252	0	0	0	0.2	5.5292802981503e-17	-0.903	0	0	0	-4.254712581634521	250.1310119628906	96.33899688720705	0.2	1.83697019872103e-17	-0.3	-56.674234375	3.081326171875	-8.078993652343749	-23.97402763366699	591.4544677734375	-130.7112274169922	0.2	-1.85533990070824e-17	0.303	-86.141328125	8.251810546874996	57.37959765625
1.253	0	0	0	0.2	5.5292802981503e-17	-0.903	0	0	0	-4.594084739685059	236.2167510986328	93.11495971679689	0.2	1.83697019872103e-17	-0.3	-54.39853125	2.891685546875	-7.83763330078125	-24.39824295043945	596.8843994140625	-131.5596618652343	0.2	-1.85533990070824e-17	0.303	-87.17571875	8.269051757812496	57.9312734375
1.254	0	0	0	0.2	5.5292802981503e-17	-0.903	0	0	0	-4.933457374572754	223.3206024169922	88.78795623779298	0.2	1.83697019872103e-17	-0.3	-51.7435625	2.615843017578126	-7.4583505859375	-25.24667549133301	600.9569091796875	-133.0019836425781	0.2	-1.85533990070824e-17	0.303	-88.072203125	8.286289062499996	58.41399609375
1.255	0	0	0	0.2	5.5292802981503e-17	-0.903	0	0	0	-5.018300533294678	215.5150299072266	85.81845092773439	0.2	1.83697019872103e-17	-0.3	-49.6057890625	2.322760986328126	-7.0445869140625	-26.01026344299316	605.7080688476563	-133.8504180908203	0.2	-1.85533990070824e-17	0.303	-89.27903125	8.320772460937496	59.1036015625
1.256	0	0	0	0.2	5.5292802981503e-17	-0.903	0	0	0	-5.442515850067139	202.958251953125	82.33988189697267	0.2	1.83697019872103e-17	-0.3	-47.2611328125	2.202080810546875	-6.7342646484375	-26.51932144165039	612.4955444335938	-134.953384399414	0.2	-1.85533990070824e-17	0.303	-90.58928125	8.182851074218746	59.4484140625
1.257	0	0	0	0.2	5.5292802981503e-17	-0.903	0	0	0	-5.781888484954834	192.4377136230469	78.18257141113283	0.2	1.83697019872103e-17	-0.3	-45.1233515625	1.90899853515625	-6.45842431640625	-27.11322212219238	615.8892822265625	-135.5472869873047	0.2	-1.85533990070824e-17	0.303	-91.382328125	8.303529296874997	59.96560546875
